# Blender v2.80 (sub 75) OBJ File: ''
# www.blender.org
mtllib heptagon.mtl
o SIR_Plane.006
v -1.000000 0.000000 -0.002246
v 1.000000 -0.000000 0.004381
v 0.456209 0.000000 -0.671242
v -0.356763 0.000000 -0.670222
v -0.690743 -0.000000 0.650516
v 0.000015 -0.000000 1.000000
v 0.734413 -0.000000 0.644950
v -1.000000 0.052720 -0.002246
v 1.000000 0.052720 0.004381
v 0.456209 0.052720 -0.671242
v -0.356763 0.052720 -0.670222
v -0.690743 0.052720 0.650516
v 0.000015 0.052720 1.000000
v 0.734413 0.052720 0.644950
vt 0.000000 0.501123
vt 0.321619 0.835111
vt 0.728104 0.835621
vt 1.000000 0.497810
vt 0.867207 0.177525
vt 0.500007 0.000000
vt 0.154629 0.174742
vt 0.000000 0.501123
vt 1.000000 0.497810
vt 0.728104 0.835621
vt 0.321619 0.835111
vt 0.154629 0.174742
vt 0.500007 0.000000
vt 0.867207 0.177525
vn -0.7904 -0.5988 -0.1292
vn -0.3048 -0.6288 -0.7153
vn 0.3379 -0.6215 -0.7068
vn 0.7857 -0.6083 -0.1126
vn 0.5616 -0.6351 0.5303
vn -0.0071 -0.6196 0.7849
vn -0.5498 -0.6409 0.5357
vn -0.7904 0.5988 -0.1292
vn 0.7857 0.6083 -0.1126
vn 0.3379 0.6215 -0.7068
vn -0.3048 0.6288 -0.7153
vn -0.5498 0.6409 0.5357
vn -0.0071 0.6196 0.7849
vn 0.5616 0.6351 0.5303
usemtl None.006
s 1
f 1/1/1 4/2/2 3/3/3 2/4/4
f 1/1/1 2/4/4 7/5/5 6/6/6 5/7/7
f 8/8/8 9/9/9 10/10/10 11/11/11
f 8/8/8 12/12/12 13/13/13 14/14/14 9/9/9
f 5/7/7 6/6/6 13/13/13 12/12/12
f 3/3/3 4/2/2 11/11/11 10/10/10
f 6/6/6 7/5/5 14/14/14 13/13/13
f 1/1/1 5/7/7 12/12/12 8/8/8
f 2/4/4 3/3/3 10/10/10 9/9/9
f 4/2/2 1/1/1 8/8/8 11/11/11
f 7/5/5 2/4/4 9/9/9 14/14/14
