# Blender v2.80 (sub 75) OBJ File: ''
# www.blender.org
mtllib octagon.mtl
o SIR_Plane.008
v -1.000000 0.000000 -0.002246
v 0.001055 -0.000000 0.001071
v 0.003611 0.000000 -1.000000
v -0.502298 0.000000 -1.000000
v -1.000000 0.000000 -0.478589
v -1.000000 -0.000000 0.407184
v -0.409119 -0.000000 1.000000
v -0.001495 -0.000000 1.000000
v 0.394366 -0.000000 1.000000
v 1.000000 -0.000000 0.432986
v 1.000000 -0.000000 0.004381
v 1.000000 0.000000 -0.478787
v 0.317862 0.000000 -1.000000
v -1.000000 0.046228 -0.002246
v 0.001055 0.046228 0.001071
v 0.003611 0.046229 -1.000000
v -0.502298 0.046229 -1.000000
v -1.000000 0.046228 -0.478589
v -1.000000 0.046228 0.407184
v -0.409119 0.046228 1.000000
v -0.001495 0.046228 1.000000
v 0.394366 0.046228 1.000000
v 1.000000 0.046228 0.432986
v 1.000000 0.046228 0.004381
v 1.000000 0.046228 -0.478787
v 0.317862 0.046229 -1.000000
vt 0.000000 0.501123
vt 0.000000 0.739295
vt 0.248851 1.000000
vt 0.501805 1.000000
vt 0.500528 0.499465
vt 0.000000 0.296408
vt 0.499252 0.000000
vt 0.295441 0.000000
vt 1.000000 0.497810
vt 1.000000 0.283507
vt 0.697183 0.000000
vt 0.658931 1.000000
vt 1.000000 0.739393
vt 0.000000 0.501123
vt 0.500528 0.499465
vt 0.501805 1.000000
vt 0.248851 1.000000
vt 0.000000 0.739295
vt 0.000000 0.296408
vt 0.295441 0.000000
vt 0.499252 0.000000
vt 0.697183 0.000000
vt 1.000000 0.283507
vt 1.000000 0.497810
vt 1.000000 0.739393
vt 0.658931 1.000000
vn -0.7071 -0.7071 -0.0000
vn -0.7192 -0.6322 -0.2882
vn -0.3060 -0.6284 -0.7152
vn 0.0000 -0.7071 -0.7071
vn 0.0000 -1.0000 -0.0000
vn -0.7174 -0.6304 0.2965
vn -0.0000 -0.7071 0.7071
vn -0.2977 -0.6301 0.7171
vn 0.7071 -0.7071 -0.0000
vn 0.7143 -0.6276 0.3097
vn 0.2844 -0.6330 0.7200
vn 0.2458 -0.6416 -0.7266
vn 0.7036 -0.6196 -0.3479
vn -0.7071 0.7071 0.0000
vn -0.0000 1.0000 0.0000
vn -0.0000 0.7071 -0.7071
vn -0.3060 0.6284 -0.7152
vn -0.7192 0.6322 -0.2882
vn -0.7174 0.6304 0.2965
vn -0.2977 0.6301 0.7171
vn -0.0000 0.7071 0.7071
vn 0.2844 0.6330 0.7200
vn 0.7143 0.6276 0.3097
vn 0.7071 0.7071 0.0000
vn 0.7036 0.6196 -0.3479
vn 0.2458 0.6416 -0.7266
usemtl None.008
s 1
f 1/1/1 5/2/2 4/3/3 3/4/4 2/5/5
f 6/6/6 1/1/1 2/5/5 8/7/7 7/8/8
f 2/5/5 11/9/9 10/10/10 9/11/11 8/7/7
f 3/4/4 13/12/12 12/13/13 11/9/9 2/5/5
f 14/14/14 15/15/15 16/16/16 17/17/17 18/18/18
f 19/19/19 20/20/20 21/21/21 15/15/15 14/14/14
f 15/15/15 21/21/21 22/22/22 23/23/23 24/24/24
f 16/16/16 15/15/15 24/24/24 25/25/25 26/26/26
f 6/6/6 7/8/8 20/20/20 19/19/19
f 13/12/12 3/4/4 16/16/16 26/26/26
f 3/4/4 4/3/3 17/17/17 16/16/16
f 8/7/7 9/11/11 22/22/22 21/21/21
f 5/2/2 1/1/1 14/14/14 18/18/18
f 7/8/8 8/7/7 21/21/21 20/20/20
f 11/9/9 12/13/13 25/25/25 24/24/24
f 4/3/3 5/2/2 18/18/18 17/17/17
f 9/11/11 10/10/10 23/23/23 22/22/22
f 12/13/13 13/12/12 26/26/26 25/25/25
f 1/1/1 6/6/6 19/19/19 14/14/14
f 10/10/10 11/9/9 24/24/24 23/23/23
