# Blender v2.80 (sub 75) OBJ File: ''
# www.blender.org
mtllib pentagon.mtl
o SIR_Plane.004
v -1.000000 -0.000000 0.198736
v -0.001706 -0.000000 1.000000
v 1.000000 -0.000000 0.219124
v 0.921296 -0.000000 0.004120
v -0.925768 0.000000 -0.002000
v -0.556708 0.000000 -1.000000
v 0.553722 0.000000 -1.000000
v -1.000000 0.044931 0.198736
v -0.001706 0.044930 1.000000
v 1.000000 0.044931 0.219124
v 0.921296 0.044931 0.004120
v -0.925768 0.044931 -0.002000
v -0.556708 0.044931 -1.000000
v 0.553722 0.044931 -1.000000
vt 0.000000 0.400632
vt 0.037116 0.501000
vt 0.960648 0.497940
vt 1.000000 0.390438
vt 0.499147 0.000000
vt 0.221646 1.000000
vt 0.776861 1.000000
vt 0.000000 0.400632
vt 0.499147 0.000000
vt 1.000000 0.390438
vt 0.960648 0.497940
vt 0.037116 0.501000
vt 0.221646 1.000000
vt 0.776861 1.000000
vn -0.7737 -0.5962 0.2142
vn -0.6632 -0.7071 -0.2453
vn 0.6640 -0.7071 -0.2431
vn 0.7723 -0.5955 0.2211
vn -0.0057 -0.5906 0.8070
vn -0.4579 -0.5983 -0.6575
vn 0.4591 -0.5981 -0.6569
vn -0.7737 0.5962 0.2142
vn -0.0057 0.5906 0.8070
vn 0.7723 0.5955 0.2211
vn 0.6640 0.7071 -0.2431
vn -0.6632 0.7071 -0.2453
vn -0.4579 0.5983 -0.6575
vn 0.4591 0.5981 -0.6569
usemtl None.004
s 1
f 1/1/1 5/2/2 4/3/3 3/4/4 2/5/5
f 6/6/6 7/7/7 4/3/3 5/2/2
f 8/8/8 9/9/9 10/10/10 11/11/11 12/12/12
f 13/13/13 12/12/12 11/11/11 14/14/14
f 3/4/4 4/3/3 11/11/11 10/10/10
f 1/1/1 2/5/5 9/9/9 8/8/8
f 6/6/6 5/2/2 12/12/12 13/13/13
f 2/5/5 3/4/4 10/10/10 9/9/9
f 5/2/2 1/1/1 8/8/8 12/12/12
f 4/3/3 7/7/7 14/14/14 11/11/11
f 7/7/7 6/6/6 13/13/13 14/14/14
