# Blender v2.80 (sub 75) OBJ File: ''
# www.blender.org
mtllib quartercircle.mtl
o SIR_Circle_Circle.009
v 0.999857 -0.000000 0.001453
v -1.000000 0.000000 0.000000
v 0.000000 -0.000000 1.000000
v 0.195091 -0.000000 0.980785
v 0.382684 -0.000000 0.923879
v 0.555571 -0.000000 0.831469
v 0.707107 -0.000000 0.707106
v 0.831470 -0.000000 0.555570
v 0.923880 -0.000000 0.382683
v 0.980785 -0.000000 0.195089
v 1.000000 0.000000 -0.000001
v 0.007687 -0.000000 0.000732
v 0.999857 0.030826 0.001453
v 0.000000 0.030826 1.000000
v 0.195091 0.030826 0.980785
v 0.382684 0.030826 0.923879
v 0.555571 0.030826 0.831469
v 0.707107 0.030826 0.707106
v 0.831470 0.030826 0.555570
v 0.923880 0.030826 0.382683
v 0.980785 0.030826 0.195089
v 1.000000 0.030826 -0.000001
v 0.007687 0.030826 0.000732
vt 0.000000 0.000000
vt 0.000000 0.000000
vt 0.000000 0.000000
vt 0.000000 0.000000
vt 0.999928 0.499273
vt 0.990393 0.402455
vt 0.961940 0.308659
vt 0.915735 0.222215
vt 0.853554 0.146447
vt 0.777785 0.084265
vt 0.691342 0.038060
vt 0.597545 0.009607
vt 0.500000 0.000000
vt 0.503843 0.499634
vt 0.999928 0.499273
vt 0.503843 0.499634
vt 0.500000 0.000000
vt 0.597545 0.009607
vt 0.691342 0.038060
vt 0.777785 0.084265
vt 0.853554 0.146447
vt 0.915735 0.222215
vt 0.961940 0.308659
vt 0.990393 0.402455
vn -0.9952 0.0000 -0.0979
vn 0.6078 -0.5724 -0.5504
vn 0.7139 -0.6857 0.1420
vn 0.6725 -0.6857 0.2785
vn 0.6052 -0.6857 0.4044
vn 0.5147 -0.6857 0.5147
vn 0.4044 -0.6857 0.6052
vn 0.2786 -0.6857 0.6725
vn 0.1420 -0.6857 0.7139
vn -0.5532 -0.5720 0.6057
vn -0.5747 -0.5777 -0.5796
vn 0.6078 0.5724 -0.5504
vn -0.5747 0.5777 -0.5796
vn -0.5532 0.5720 0.6057
vn 0.1420 0.6857 0.7139
vn 0.2786 0.6857 0.6725
vn 0.4044 0.6857 0.6052
vn 0.5147 0.6857 0.5147
vn 0.6052 0.6857 0.4044
vn 0.6725 0.6857 0.2785
vn 0.7139 0.6857 0.1420
usemtl None.009
s off
f 11/1/1 1/2/1 13/3/1 22/4/1
s 1
f 1/5/2 10/6/3 9/7/4 8/8/5 7/9/6 6/10/7 5/11/8 4/12/9 3/13/10 12/14/11
f 13/15/12 23/16/13 14/17/14 15/18/15 16/19/16 17/20/17 18/21/18 19/22/19 20/23/20 21/24/21
f 8/8/5 9/7/4 20/23/20 19/22/19
f 5/11/8 6/10/7 17/20/17 16/19/16
f 9/7/4 10/6/3 21/24/21 20/23/20
f 6/10/7 7/9/6 18/21/18 17/20/17
f 3/13/10 4/12/9 15/18/15 14/17/14
f 1/5/2 12/14/11 23/16/13 13/15/12
f 7/9/6 8/8/5 19/22/19 18/21/18
f 4/12/9 5/11/8 16/19/16 15/18/15
f 12/14/11 3/13/10 14/17/14 23/16/13
f 10/6/3 1/5/2 13/15/12 21/24/21
l 12 2
