# Blender v2.80 (sub 75) OBJ File: ''
# www.blender.org
mtllib rectangle.mtl
o SIR_Plane.003
v -1.000000 -0.000000 1.000000
v 1.000000 -0.000000 1.000000
v 1.000000 -0.000000 0.004381
v -1.000000 0.000000 -0.002246
v -1.000000 0.037994 1.000000
v 1.000000 0.037994 1.000000
v 1.000000 0.037994 0.004381
v -1.000000 0.037994 -0.002246
vt 0.000000 0.000000
vt 0.000000 0.501123
vt 1.000000 0.497810
vt 1.000000 0.000000
vt 0.000000 0.000000
vt 1.000000 0.000000
vt 1.000000 0.497810
vt 0.000000 0.501123
vn -0.5774 -0.5774 0.5774
vn -0.5765 -0.5772 -0.5784
vn 0.5782 -0.5775 -0.5763
vn 0.5774 -0.5774 0.5774
vn -0.5774 0.5774 0.5774
vn 0.5774 0.5774 0.5774
vn 0.5782 0.5775 -0.5763
vn -0.5765 0.5772 -0.5784
usemtl None.003
s 1
f 1/1/1 4/2/2 3/3/3 2/4/4
f 5/5/5 6/6/6 7/7/7 8/8/8
f 2/4/4 3/3/3 7/7/7 6/6/6
f 4/2/2 1/1/1 5/5/5 8/8/8
f 3/3/3 4/2/2 8/8/8 7/7/7
f 1/1/1 2/4/4 6/6/6 5/5/5
