# Blender v2.80 (sub 75) OBJ File: ''
# www.blender.org
mtllib semicircle.mtl
o Circle_Circle.001
v 0.000000 0.000000 -1.000000
v -0.195090 0.000000 -0.980785
v -0.382683 0.000000 -0.923880
v -0.555570 0.000000 -0.831470
v -0.707107 0.000000 -0.707107
v -0.831470 0.000000 -0.555570
v -0.923880 0.000000 -0.382683
v -0.980785 0.000000 -0.195090
v -1.000000 0.000000 -0.000000
v 1.000000 0.000000 -0.000001
v 0.980785 0.000000 -0.195091
v 0.923879 0.000000 -0.382684
v 0.831469 0.000000 -0.555571
v 0.707106 0.000000 -0.707108
v 0.555569 0.000000 -0.831470
v 0.382682 0.000000 -0.923880
v 0.195089 0.000000 -0.980786
v 0.000000 0.061122 -1.000000
v -0.195090 0.061122 -0.980785
v -0.382683 0.061122 -0.923880
v -0.555570 0.061122 -0.831470
v -0.707107 0.061122 -0.707107
v -0.831470 0.061122 -0.555570
v -0.923880 0.061122 -0.382683
v -0.980785 0.061122 -0.195090
v -1.000000 0.061122 -0.000000
v -0.999016 -0.003831 0.002793
v 1.000000 0.061122 -0.000001
v 0.980785 0.061122 -0.195091
v 0.923879 0.061122 -0.382684
v 0.831469 0.061122 -0.555571
v 0.707106 0.061122 -0.707108
v 0.555569 0.061122 -0.831470
v 0.382682 0.061122 -0.923880
v 0.195089 0.061122 -0.980786
vt 0.500000 1.000000
vt 0.402455 0.990393
vt 0.308658 0.961940
vt 0.222215 0.915735
vt 0.146447 0.853553
vt 0.084265 0.777785
vt 0.038060 0.691342
vt 0.009607 0.597545
vt 0.000000 0.500000
vt 1.000000 0.500000
vt 0.990393 0.597546
vt 0.961940 0.691342
vt 0.915734 0.777786
vt 0.853553 0.853554
vt 0.777785 0.915735
vt 0.691341 0.961940
vt 0.597544 0.990393
vt 0.084265 0.777785
vt 0.038060 0.691342
vt 0.009607 0.597545
vt 0.000000 0.500000
vt 0.000000 0.000000
vt 0.000000 0.000000
vt 0.000000 0.000000
vt 0.000000 0.000000
vt 1.000000 0.500000
vt 0.990393 0.597546
vt 0.961940 0.691342
vt 0.915734 0.777786
vt 0.500000 1.000000
vt 0.402455 0.990393
vt 0.853553 0.853554
vt 0.308658 0.961940
vt 0.777785 0.915735
vt 0.222215 0.915735
vt 0.691341 0.961940
vt 0.146447 0.853553
vt 0.597544 0.990393
vn 0.0000 1.0000 -0.0000
vn -0.8819 0.0000 -0.4714
vn -0.9569 0.0000 -0.2903
vn -0.9952 0.0000 -0.0980
vn -0.9659 -0.2584 -0.0142
vn 0.9952 0.0000 -0.0980
vn 0.9569 0.0000 -0.2903
vn 0.8819 0.0000 -0.4714
vn -0.0980 0.0000 -0.9952
vn 0.7730 0.0000 -0.6344
vn -0.2903 0.0000 -0.9569
vn 0.6344 0.0000 -0.7730
vn -0.4714 0.0000 -0.8819
vn 0.4714 0.0000 -0.8819
vn -0.6344 0.0000 -0.7730
vn 0.2903 0.0000 -0.9569
vn -0.7730 0.0000 -0.6344
vn 0.0980 0.0000 -0.9952
vn -0.0000 -1.0000 -0.0025
vn 0.0007 0.0222 0.9998
usemtl None
s off
f 18/1/1 19/2/1 20/3/1 21/4/1 22/5/1 23/6/1 24/7/1 25/8/1 26/9/1 28/10/1 29/11/1 30/12/1 31/13/1 32/14/1 33/15/1 34/16/1 35/17/1
f 6/18/2 7/19/2 24/7/2 23/6/2
f 7/19/3 8/20/3 25/8/3 24/7/3
f 8/20/4 9/21/4 26/9/4 25/8/4
f 9/22/5 8/23/5 27/24/5 26/25/5
f 10/26/6 11/27/6 29/11/6 28/10/6
f 11/27/7 12/28/7 30/12/7 29/11/7
f 12/28/8 13/29/8 31/13/8 30/12/8
f 1/30/9 2/31/9 19/2/9 18/1/9
f 13/29/10 14/32/10 32/14/10 31/13/10
f 2/31/11 3/33/11 20/3/11 19/2/11
f 14/32/12 15/34/12 33/15/12 32/14/12
f 3/33/13 4/35/13 21/4/13 20/3/13
f 15/34/14 16/36/14 34/16/14 33/15/14
f 4/35/15 5/37/15 22/5/15 21/4/15
f 16/36/16 17/38/16 35/17/16 34/16/16
f 5/37/17 6/18/17 23/6/17 22/5/17
f 17/38/18 1/30/18 18/1/18 35/17/18
f 11/27/19 10/26/19 27/24/19 9/21/19 8/20/19 7/19/19 6/18/19 5/37/19 4/35/19 3/33/19 2/31/19 1/30/19 17/38/19 16/36/19 15/34/19 14/32/19 13/29/19 12/28/19
f 26/9/20 27/24/20 10/26/20 28/10/20
