# Blender v2.80 (sub 75) OBJ File: ''
# www.blender.org
mtllib triangle.mtl
o SIR_Plane.002
v -0.468396 0.000000 -1.000000
v -0.462260 0.000000 -0.000464
v 1.000000 -0.000000 0.004381
v -0.456118 -0.000000 1.000000
v -0.468396 0.102272 -1.000000
v -0.462260 0.102272 -0.000464
v 1.000000 0.102272 0.004381
v -0.456118 0.102272 1.000000
vt 0.265802 1.000000
vt 1.000000 0.497810
vt 0.268870 0.500232
vt 0.271941 0.000000
vt 0.265802 1.000000
vt 0.268870 0.500232
vt 1.000000 0.497810
vt 0.271941 0.000000
vn -0.3913 -0.5520 -0.7363
vn 0.8283 -0.5603 0.0001
vn -0.7071 -0.7071 0.0043
vn -0.3867 -0.5524 0.7384
vn -0.3913 0.5520 -0.7363
vn -0.7071 0.7071 0.0043
vn 0.8283 0.5603 0.0001
vn -0.3867 0.5524 0.7384
usemtl None.002
s 1
f 1/1/1 3/2/2 2/3/3
f 2/3/3 3/2/2 4/4/4
f 5/5/5 6/6/6 7/7/7
f 6/6/6 8/8/8 7/7/7
f 4/4/4 3/2/2 7/7/7 8/8/8
f 3/2/2 1/1/1 5/5/5 7/7/7
f 2/3/3 4/4/4 8/8/8 6/6/6
f 1/1/1 2/3/3 6/6/6 5/5/5
