# Blender v2.80 (sub 75) OBJ File: ''
# www.blender.org
mtllib K.mtl
o A
v 0.285000 0.000000 -0.359000
v 0.582000 0.000000 -0.682000
v 0.460000 0.000000 -0.682000
v 0.173000 0.000000 -0.370000
v 0.173000 0.000000 -0.682000
v 0.075000 0.000000 -0.682000
v 0.075000 0.000000 0.000000
v 0.173000 0.000000 0.000000
v 0.173000 0.000000 -0.337000
v 0.520000 0.000000 0.000000
v 0.655000 0.000000 0.000000
vn 0.0000 1.0000 0.0000
usemtl None
s off
f 7//1 5//1 6//1
f 7//1 4//1 5//1
f 4//1 2//1 3//1
f 4//1 1//1 2//1
f 7//1 9//1 4//1
f 9//1 1//1 4//1
f 9//1 11//1 1//1
f 7//1 8//1 9//1
f 10//1 11//1 9//1
