# Blender v2.80 (sub 75) OBJ File: ''
# www.blender.org
mtllib circle.mtl
o Circle_Circle.001
v 0.000000 0.000000 -1.000000
v -0.195090 0.000000 -0.980785
v -0.382683 0.000000 -0.923880
v -0.555570 0.000000 -0.831470
v -0.707107 0.000000 -0.707107
v -0.831470 0.000000 -0.555570
v -0.923880 0.000000 -0.382683
v -0.980785 0.000000 -0.195090
v -1.000000 0.000000 -0.000000
v -0.980785 0.000000 0.195090
v -0.923880 0.000000 0.382683
v -0.831470 0.000000 0.555570
v -0.707107 0.000000 0.707107
v -0.555570 0.000000 0.831470
v -0.382683 0.000000 0.923880
v -0.195090 0.000000 0.980785
v 0.000000 0.000000 1.000000
v 0.195091 0.000000 0.980785
v 0.382684 0.000000 0.923879
v 0.555571 0.000000 0.831469
v 0.707107 0.000000 0.707106
v 0.831470 0.000000 0.555570
v 0.923880 0.000000 0.382683
v 0.980785 0.000000 0.195089
v 1.000000 0.000000 -0.000001
v 0.980785 0.000000 -0.195091
v 0.923879 0.000000 -0.382684
v 0.831469 0.000000 -0.555571
v 0.707106 0.000000 -0.707108
v 0.555569 0.000000 -0.831470
v 0.382682 0.000000 -0.923880
v 0.195089 0.000000 -0.980786
v 0.000000 0.061122 -1.000000
v -0.195090 0.061122 -0.980785
v -0.382683 0.061122 -0.923880
v -0.555570 0.061122 -0.831470
v -0.707107 0.061122 -0.707107
v -0.831470 0.061122 -0.555570
v -0.923880 0.061122 -0.382683
v -0.980785 0.061122 -0.195090
v -1.000000 0.061122 -0.000000
v -0.980785 0.061122 0.195090
v -0.923880 0.061122 0.382683
v -0.831470 0.061122 0.555570
v -0.707107 0.061122 0.707107
v -0.555570 0.061122 0.831470
v -0.382683 0.061122 0.923880
v -0.195090 0.061122 0.980785
v 0.000000 0.061122 1.000000
v 0.195091 0.061122 0.980785
v 0.382684 0.061122 0.923879
v 0.555571 0.061122 0.831469
v 0.707107 0.061122 0.707106
v 0.831470 0.061122 0.555570
v 0.923880 0.061122 0.382683
v 0.980785 0.061122 0.195089
v 1.000000 0.061122 -0.000001
v 0.980785 0.061122 -0.195091
v 0.923879 0.061122 -0.382684
v 0.831469 0.061122 -0.555571
v 0.707106 0.061122 -0.707108
v 0.555569 0.061122 -0.831470
v 0.382682 0.061122 -0.923880
v 0.195089 0.061122 -0.980786
vt 0.500000 1.000000
vt 0.597544 0.990393
vt 0.691341 0.961940
vt 0.777785 0.915735
vt 0.853553 0.853554
vt 0.915734 0.777786
vt 0.961940 0.691342
vt 0.990393 0.597546
vt 1.000000 0.500000
vt 0.990393 0.402455
vt 0.961940 0.308659
vt 0.915735 0.222215
vt 0.853554 0.146447
vt 0.777785 0.084265
vt 0.691342 0.038060
vt 0.597545 0.009607
vt 0.500000 0.000000
vt 0.402455 0.009607
vt 0.308658 0.038060
vt 0.222215 0.084265
vt 0.146447 0.146447
vt 0.084265 0.222215
vt 0.038060 0.308658
vt 0.009607 0.402455
vt 0.000000 0.500000
vt 0.009607 0.597545
vt 0.038060 0.691342
vt 0.084265 0.777785
vt 0.146447 0.853553
vt 0.222215 0.915735
vt 0.308658 0.961940
vt 0.402455 0.990393
vt 0.500000 1.000000
vt 0.402455 0.990393
vt 0.308658 0.961940
vt 0.222215 0.915735
vt 0.146447 0.853553
vt 0.084265 0.777785
vt 0.038060 0.691342
vt 0.009607 0.597545
vt 0.000000 0.500000
vt 0.009607 0.402455
vt 0.038060 0.308658
vt 0.084265 0.222215
vt 0.146447 0.146447
vt 0.222215 0.084265
vt 0.308658 0.038060
vt 0.402455 0.009607
vt 0.500000 0.000000
vt 0.597545 0.009607
vt 0.691342 0.038060
vt 0.777785 0.084265
vt 0.853554 0.146447
vt 0.915735 0.222215
vt 0.961940 0.308659
vt 0.990393 0.402455
vt 1.000000 0.500000
vt 0.990393 0.597546
vt 0.961940 0.691342
vt 0.915734 0.777786
vt 0.853553 0.853554
vt 0.777785 0.915735
vt 0.691341 0.961940
vt 0.597544 0.990393
vn 0.0000 -1.0000 0.0000
vn 0.0000 1.0000 -0.0000
vn 0.4714 0.0000 0.8819
vn -0.8819 0.0000 -0.4714
vn 0.6344 0.0000 0.7730
vn -0.9569 0.0000 -0.2903
vn 0.7730 0.0000 0.6344
vn -0.9952 0.0000 -0.0980
vn 0.8819 0.0000 0.4714
vn -0.9952 0.0000 0.0980
vn 0.9569 0.0000 0.2903
vn -0.9569 0.0000 0.2903
vn 0.9952 0.0000 0.0980
vn -0.8819 0.0000 0.4714
vn 0.9952 0.0000 -0.0980
vn -0.7730 0.0000 0.6344
vn 0.9569 0.0000 -0.2903
vn -0.6344 0.0000 0.7730
vn 0.8819 0.0000 -0.4714
vn -0.4714 0.0000 0.8819
vn -0.0980 0.0000 -0.9952
vn 0.7730 0.0000 -0.6344
vn -0.2903 0.0000 0.9569
vn -0.2903 0.0000 -0.9569
vn 0.6344 0.0000 -0.7730
vn -0.0980 0.0000 0.9952
vn -0.4714 0.0000 -0.8819
vn 0.4714 0.0000 -0.8819
vn 0.0980 0.0000 0.9952
vn -0.6344 0.0000 -0.7730
vn 0.2903 0.0000 -0.9569
vn 0.2903 0.0000 0.9569
vn -0.7730 0.0000 -0.6344
vn 0.0980 0.0000 -0.9952
usemtl None
s off
f 1/1/1 32/2/1 31/3/1 30/4/1 29/5/1 28/6/1 27/7/1 26/8/1 25/9/1 24/10/1 23/11/1 22/12/1 21/13/1 20/14/1 19/15/1 18/16/1 17/17/1 16/18/1 15/19/1 14/20/1 13/21/1 12/22/1 11/23/1 10/24/1 9/25/1 8/26/1 7/27/1 6/28/1 5/29/1 4/30/1 3/31/1 2/32/1
f 33/33/2 34/34/2 35/35/2 36/36/2 37/37/2 38/38/2 39/39/2 40/40/2 41/41/2 42/42/2 43/43/2 44/44/2 45/45/2 46/46/2 47/47/2 48/48/2 49/49/2 50/50/2 51/51/2 52/52/2 53/53/2 54/54/2 55/55/2 56/56/2 57/57/2 58/58/2 59/59/2 60/60/2 61/61/2 62/62/2 63/63/2 64/64/2
f 19/15/3 20/14/3 52/52/3 51/51/3
f 6/28/4 7/27/4 39/39/4 38/38/4
f 20/14/5 21/13/5 53/53/5 52/52/5
f 7/27/6 8/26/6 40/40/6 39/39/6
f 21/13/7 22/12/7 54/54/7 53/53/7
f 8/26/8 9/25/8 41/41/8 40/40/8
f 22/12/9 23/11/9 55/55/9 54/54/9
f 9/25/10 10/24/10 42/42/10 41/41/10
f 23/11/11 24/10/11 56/56/11 55/55/11
f 10/24/12 11/23/12 43/43/12 42/42/12
f 24/10/13 25/9/13 57/57/13 56/56/13
f 11/23/14 12/22/14 44/44/14 43/43/14
f 25/9/15 26/8/15 58/58/15 57/57/15
f 12/22/16 13/21/16 45/45/16 44/44/16
f 26/8/17 27/7/17 59/59/17 58/58/17
f 13/21/18 14/20/18 46/46/18 45/45/18
f 27/7/19 28/6/19 60/60/19 59/59/19
f 14/20/20 15/19/20 47/47/20 46/46/20
f 1/1/21 2/32/21 34/34/21 33/33/21
f 28/6/22 29/5/22 61/61/22 60/60/22
f 15/19/23 16/18/23 48/48/23 47/47/23
f 2/32/24 3/31/24 35/35/24 34/34/24
f 29/5/25 30/4/25 62/62/25 61/61/25
f 16/18/26 17/17/26 49/49/26 48/48/26
f 3/31/27 4/30/27 36/36/27 35/35/27
f 30/4/28 31/3/28 63/63/28 62/62/28
f 17/17/29 18/16/29 50/50/29 49/49/29
f 4/30/30 5/29/30 37/37/30 36/36/30
f 31/3/31 32/2/31 64/64/31 63/63/31
f 18/16/32 19/15/32 51/51/32 50/50/32
f 5/29/33 6/28/33 38/38/33 37/37/33
f 32/2/34 1/1/34 33/33/34 64/64/34
