# Blender v2.80 (sub 75) OBJ File: ''
# www.blender.org
mtllib heptagon.mtl
o Plane
v -1.000000 0.000000 -0.002246
v 1.000000 0.000000 0.004381
v 0.000015 0.000000 1.000000
v 0.734413 0.000000 0.644950
v -0.690743 0.000000 0.650516
v 0.456209 0.000000 -0.671242
v -0.356763 0.000000 -0.670222
vt 0.000000 0.501123
vt 1.000000 0.497810
vt 0.728104 0.835621
vt 0.321619 0.835111
vt 0.154629 0.174742
vt 0.500007 0.000000
vt 0.867207 0.177525
vn 0.0000 1.0000 0.0000
usemtl None
s off
f 1/1/1 2/2/1 6/3/1 7/4/1
f 1/1/1 5/5/1 3/6/1 4/7/1 2/2/1
