# Blender v2.80 (sub 75) OBJ File: ''
# www.blender.org
mtllib pentagon.mtl
o Plane
v -1.000000 0.000000 0.198736
v 0.553722 0.000000 -1.000000
v -0.556708 0.000000 -1.000000
v -0.925768 0.000000 -0.002000
v 0.921296 0.000000 0.004120
v 1.000000 0.000000 0.219124
v -0.001706 0.000000 1.000000
vt 0.000000 0.400632
vt 0.499147 0.000000
vt 1.000000 0.390438
vt 0.960648 0.497940
vt 0.037116 0.501000
vt 0.221646 1.000000
vt 0.776861 1.000000
vn 0.0000 1.0000 0.0000
usemtl None
s off
f 1/1/1 7/2/1 6/3/1 5/4/1 4/5/1
f 3/6/1 4/5/1 5/4/1 2/7/1
