# Blender v2.80 (sub 75) OBJ File: ''
# www.blender.org
mtllib star.mtl
o Plane
v -1.000000 0.000000 0.180152
v 0.480299 0.000000 -1.000000
v -0.604921 0.000000 -1.000000
v -0.608604 0.000000 -1.000000
v -0.772158 0.000000 -0.001491
v -0.305276 0.000000 0.000056
v 0.238710 0.000000 0.001858
v 0.778391 0.000000 0.003647
v 1.000000 0.000000 0.164433
v -0.001982 0.000000 1.000000
v 0.197856 0.000000 0.171281
v -0.252330 0.000000 0.174615
v 0.318704 0.000000 -0.329874
v -0.396567 0.000000 -0.300927
v -0.036762 0.000000 -0.587778
vt 0.000000 0.409924
vt 0.373835 0.412693
vt 0.347362 0.499972
vt 0.113921 0.500746
vt 0.598928 0.414360
vt 0.619355 0.499071
vt 1.000000 0.417784
vt 0.889195 0.498177
vt 0.499009 0.000000
vt 0.195698 1.000000
vt 0.301716 0.650463
vt 0.481621 0.793888
vt 0.197540 1.000000
vt 0.659355 0.664935
vt 0.740149 1.000000
vn 0.0000 1.0000 0.0000
usemtl None
s off
f 1/1/1 12/2/1 6/3/1 5/4/1
f 6/3/1 12/2/1 11/5/1 7/6/1
f 7/6/1 11/5/1 9/7/1 8/8/1
f 11/5/1 12/2/1 10/9/1
f 4/10/1 14/11/1 15/12/1 3/13/1
f 8/8/1 13/14/1 7/6/1
f 7/6/1 13/14/1 15/12/1 14/11/1 6/3/1
f 6/3/1 14/11/1 5/4/1
f 13/14/1 2/15/1 15/12/1
